<svg width="16" height="17" viewBox="0 0 16 17" fill="none" xmlns="http://www.w3.org/2000/svg">
<path d="M11.738 7.64836L8.4235 2.37036C8.37541 2.30286 8.31188 2.24784 8.23822 2.20987C8.16455 2.17191 8.08287 2.1521 8 2.1521C7.91713 2.1521 7.83545 2.17191 7.76178 2.20987C7.68812 2.24784 7.62459 2.30286 7.5765 2.37036L4.247 7.67386C3.78483 8.41998 3.5272 9.27461 3.5 10.1519C3.5 11.3453 3.97411 12.4899 4.81802 13.3338C5.66193 14.1778 6.80653 14.6519 8 14.6519C9.19347 14.6519 10.3381 14.1778 11.182 13.3338C12.0259 12.4899 12.5 11.3453 12.5 10.1519C12.4713 9.26474 12.2084 8.40101 11.738 7.64836ZM8 13.6519C7.07215 13.6505 6.18268 13.2814 5.52659 12.6253C4.8705 11.9692 4.50132 11.0797 4.5 10.1519C4.52709 9.45274 4.73708 8.77296 5.109 8.18036L5.5765 7.43536L10.6135 12.4724C10.2863 12.8429 9.8841 13.1397 9.43354 13.3432C8.98298 13.5466 8.49435 13.6515 8 13.6519Z" fill="#64748b"/>
</svg>
