<svg width="20" height="21" viewBox="0 0 20 21" fill="none" xmlns="http://www.w3.org/2000/svg">
<path d="M1.83325 10.4993C1.83325 10.3284 1.89992 10.1712 2.03325 10.0276C2.17992 9.89775 2.33992 9.8294 2.49992 9.8294H4.05325C4.23325 9.8294 4.37992 9.89775 4.49992 10.0276C4.61992 10.1575 4.67992 10.3216 4.67992 10.4993C4.67992 10.6975 4.61992 10.8616 4.49992 10.9914C4.4431 11.0546 4.374 11.1049 4.29707 11.1391C4.22014 11.1732 4.13708 11.1904 4.05325 11.1897H2.49992C2.31992 11.1897 2.16659 11.1213 2.03325 10.9846C1.89992 10.841 1.83325 10.677 1.83325 10.4993ZM4.05325 5.04459C4.05325 4.86003 4.11325 4.70282 4.22659 4.57978C4.37992 4.44307 4.53325 4.37472 4.69992 4.37472C4.87325 4.37472 5.02659 4.44307 5.15325 4.57294L6.24659 5.70079C6.37325 5.85117 6.43325 6.00839 6.43325 6.17244C6.43325 6.36383 6.37325 6.52788 6.25325 6.65092C6.13325 6.77396 5.98659 6.84231 5.81325 6.84231C5.65325 6.84231 5.49325 6.77396 5.34659 6.64408L4.22659 5.54358C4.11325 5.40003 4.05325 5.22915 4.05325 5.04459ZM5.38659 14.2724C5.38659 14.081 5.45325 13.9238 5.57992 13.8076C5.69992 13.6914 5.84659 13.6299 6.03325 13.6299H7.78659L9.85992 11.634C9.92659 11.5793 9.99992 11.5793 10.0866 11.634L12.1933 13.6299H14.0399C14.2199 13.6299 14.3733 13.6914 14.4999 13.8213C14.5616 13.8795 14.6106 13.9504 14.6439 14.0293C14.6772 14.1082 14.694 14.1933 14.6933 14.2793C14.6933 14.4638 14.6266 14.621 14.4999 14.7509C14.3733 14.8808 14.2199 14.9491 14.0399 14.9491H11.7866C11.7199 14.9491 11.6533 14.9355 11.5933 14.9013L9.98659 13.3497L8.39325 14.9013C8.33992 14.9355 8.27992 14.9491 8.20659 14.9491H6.03325C5.9473 14.9488 5.86227 14.931 5.7831 14.8966C5.70392 14.8623 5.63218 14.8123 5.57202 14.7493C5.51187 14.6864 5.4645 14.6118 5.43267 14.5299C5.40084 14.4481 5.38517 14.3606 5.38659 14.2724ZM5.99992 10.4993C5.99992 11.1623 6.13992 11.7638 6.41325 12.3038C6.42659 12.3859 6.48659 12.4269 6.57992 12.4269H7.83325C7.87992 12.4269 7.91325 12.4064 7.93325 12.3722C7.95325 12.3312 7.94659 12.2902 7.91992 12.2423C7.49325 11.716 7.27992 11.135 7.27992 10.4993C7.27992 9.7337 7.54659 9.0775 8.07992 8.5375C8.61325 7.9975 9.25325 7.73092 10.0066 7.73092C10.7533 7.73092 11.3866 7.9975 11.9133 8.5375C12.4399 9.0775 12.7066 9.72687 12.7066 10.4993C12.7066 11.1418 12.4933 11.7228 12.0733 12.2423C12.0466 12.2902 12.0399 12.3312 12.0533 12.3722C12.0666 12.4132 12.0999 12.4269 12.1533 12.4269H13.4199C13.5066 12.4269 13.5599 12.3859 13.5733 12.3038C13.8666 11.7775 13.9999 11.176 13.9999 10.4993C13.9999 9.9456 13.8933 9.41244 13.6799 8.91345C13.4666 8.40763 13.1799 7.97699 12.8266 7.60788C12.4601 7.23611 12.028 6.93919 11.5533 6.73294C11.0599 6.51421 10.5466 6.41168 10.0066 6.41168C9.46659 6.41168 8.94659 6.52104 8.45325 6.73294C7.95992 6.95168 7.53325 7.23877 7.17325 7.60788C6.80132 7.98664 6.50617 8.43712 6.30479 8.93336C6.10342 9.4296 5.9998 9.96179 5.99992 10.4993ZM9.35325 4.37472V2.80256C9.35325 2.60434 9.41325 2.44712 9.53992 2.31725C9.66659 2.18737 9.82659 2.12585 10.0133 2.12585C10.1999 2.12585 10.3533 2.18737 10.4799 2.31725C10.6066 2.44712 10.6666 2.61801 10.6666 2.8094V4.38155C10.6666 4.57978 10.6066 4.73699 10.4799 4.86687C10.3599 4.98991 10.1999 5.05826 10.0133 5.05826C9.92574 5.06165 9.83849 5.04639 9.75702 5.01344C9.67554 4.9805 9.60162 4.93059 9.53992 4.86687C9.47765 4.80227 9.42896 4.72527 9.39685 4.64062C9.36474 4.55597 9.34991 4.46547 9.35325 4.37472ZM13.5866 6.17927C13.5866 6.00839 13.6466 5.85117 13.7666 5.70763L14.8466 4.57978C14.9733 4.4499 15.1333 4.38155 15.3133 4.38155C15.4933 4.38155 15.6533 4.4499 15.7733 4.57978C15.8999 4.70965 15.9599 4.86687 15.9599 5.05142C15.9599 5.24965 15.8999 5.4137 15.7866 5.55041L14.6666 6.65092C14.5266 6.78079 14.3666 6.84915 14.1999 6.84915C14.0199 6.84915 13.8733 6.78763 13.7599 6.65775C13.6466 6.52788 13.5866 6.37066 13.5866 6.17927ZM15.3266 10.4993C15.3266 10.3147 15.3866 10.1575 15.5066 10.0276C15.6266 9.89775 15.7733 9.8294 15.9466 9.8294H17.5133C17.6933 9.8294 17.8466 9.89775 17.9733 10.0276C18.097 10.1545 18.1665 10.3266 18.1665 10.5061C18.1665 10.6856 18.097 10.8577 17.9733 10.9846C17.8466 11.1213 17.6933 11.1897 17.5133 11.1897H15.9466C15.7666 11.1897 15.6199 11.1213 15.4999 10.9914C15.3866 10.8547 15.3266 10.6907 15.3266 10.4993Z" fill="#64748b"/>
</svg>
