<svg width="20" height="20" viewBox="0 0 20 20" fill="none" xmlns="http://www.w3.org/2000/svg">
<path d="M1.91992 10.3133C1.91992 10.1266 1.98659 9.97994 2.11992 9.85994C2.23326 9.73994 2.38659 9.68661 2.57326 9.68661H4.11326C4.19591 9.68416 4.27818 9.69875 4.35495 9.72947C4.43172 9.76018 4.50134 9.80637 4.5595 9.86515C4.61765 9.92393 4.66309 9.99405 4.69298 10.0711C4.72288 10.1482 4.73658 10.2307 4.73325 10.3133C4.73325 10.4999 4.67325 10.6599 4.55325 10.7866C4.43325 10.9133 4.28659 10.9799 4.11326 10.9799H2.57992C2.39992 10.9799 2.24659 10.9133 2.11992 10.7799C1.98659 10.6466 1.91992 10.4933 1.91992 10.3133ZM4.11326 5.07328C4.11326 4.88661 4.16659 4.73328 4.27992 4.61994C4.41326 4.48661 4.56659 4.41994 4.74659 4.41994C4.93992 4.41994 5.08659 4.48661 5.19992 4.61994L6.27992 5.70661C6.58659 5.99994 6.58659 6.29994 6.27992 6.60661C6.22455 6.66602 6.15744 6.71329 6.08285 6.74543C6.00826 6.77756 5.9278 6.79385 5.84659 6.79328C5.69992 6.79328 5.55326 6.73328 5.39326 6.60661L4.28659 5.52661C4.17153 5.40412 4.10927 5.24128 4.11326 5.07328ZM5.42659 13.9266C5.42659 13.7533 5.49325 13.5999 5.62659 13.4666C5.74659 13.3466 5.89992 13.2866 6.07992 13.2866H8.22659C8.29992 13.2866 8.35992 13.2999 8.41325 13.3399L9.97992 14.8199L11.5733 13.3333C11.6199 13.2999 11.6866 13.2799 11.7666 13.2799H13.9666C14.1466 13.2799 14.2999 13.3399 14.4266 13.4666C14.5533 13.5933 14.6199 13.7466 14.6199 13.9199C14.6199 14.0999 14.5533 14.2533 14.4266 14.3799C14.2999 14.5066 14.1466 14.5733 13.9666 14.5733H12.1799L10.0866 16.4666C10.0066 16.5266 9.93325 16.5266 9.86659 16.4666L7.81325 14.5733H6.07992C5.89992 14.5733 5.74659 14.5066 5.61992 14.3799C5.55764 14.3222 5.50823 14.252 5.47491 14.1739C5.4416 14.0958 5.42513 14.0115 5.42659 13.9266ZM6.05325 10.3133C6.05325 10.9733 6.17992 11.5599 6.43992 12.0599C6.47992 12.1333 6.53992 12.1666 6.61992 12.1666H7.86659C7.91992 12.1666 7.95325 12.1533 7.96659 12.1199C7.97992 12.0866 7.95992 12.0466 7.91992 11.9999C7.52659 11.5066 7.32659 10.9399 7.32659 10.3133C7.32659 9.57994 7.58659 8.95328 8.11325 8.43994C8.63992 7.92661 9.27325 7.66661 10.0133 7.66661C10.7466 7.66661 11.3733 7.92661 11.8999 8.43994C12.4199 8.95994 12.6866 9.57994 12.6866 10.3066C12.6866 10.9333 12.4866 11.4999 12.0933 11.9933C12.0466 12.0399 12.0333 12.0799 12.0466 12.1133C12.0599 12.1466 12.0933 12.1599 12.1466 12.1599H13.3999C13.4866 12.1599 13.5399 12.1266 13.5599 12.0533C13.8333 11.5333 13.9733 10.9466 13.9733 10.3066C13.9733 9.77994 13.8666 9.26661 13.6599 8.77994C13.4533 8.29328 13.1666 7.86661 12.8133 7.51328C12.4599 7.15994 12.0399 6.87994 11.5533 6.66661C11.0696 6.45634 10.5473 6.34961 10.0199 6.35328C9.48659 6.35328 8.97325 6.45994 8.48659 6.66661C7.99992 6.87994 7.57992 7.15994 7.22659 7.51328C6.87325 7.86661 6.59325 8.28661 6.37992 8.77994C6.16659 9.27328 6.05325 9.78661 6.05325 10.3133ZM9.35992 4.43994V2.88661C9.35992 2.70661 9.42659 2.55328 9.55325 2.42661C9.67992 2.29994 9.83325 2.23328 10.0133 2.23328C10.1933 2.23328 10.3466 2.29994 10.4733 2.42661C10.5999 2.55328 10.6666 2.70661 10.6666 2.88661V4.43328C10.6666 4.61328 10.5999 4.76661 10.4733 4.89328C10.3466 5.01994 10.1933 5.08661 10.0133 5.08661C9.83325 5.08661 9.67992 5.01994 9.55325 4.89328C9.49029 4.83609 9.44042 4.76598 9.40705 4.68774C9.37368 4.6095 9.35761 4.52497 9.35992 4.43994ZM13.5399 6.15994C13.5399 5.97328 13.5999 5.81994 13.7133 5.71328L14.7999 4.62661C14.9066 4.49328 15.0599 4.42661 15.2533 4.42661C15.4333 4.42661 15.5866 4.49328 15.7066 4.61994C15.8266 4.74661 15.8866 4.89994 15.8866 5.07994C15.8866 5.26661 15.8333 5.41994 15.7199 5.53328L14.6133 6.61994C14.4599 6.74661 14.3066 6.80661 14.1533 6.80661C14.0709 6.80854 13.989 6.79289 13.9131 6.76071C13.8373 6.72852 13.7691 6.68053 13.7133 6.61994C13.5999 6.49328 13.5399 6.33994 13.5399 6.15994ZM15.2666 10.3133C15.2666 10.1333 15.3266 9.98661 15.4399 9.86661C15.5533 9.74661 15.7066 9.68661 15.8866 9.68661H17.4333C17.6133 9.68661 17.7666 9.74661 17.8933 9.86661C18.0199 9.98661 18.0866 10.1333 18.0866 10.3133C18.0866 10.4933 18.0199 10.6466 17.8933 10.7799C17.7666 10.9133 17.6133 10.9799 17.4333 10.9799H15.8866C15.7133 10.9799 15.5666 10.9133 15.4466 10.7866C15.3265 10.6587 15.2619 10.4886 15.2666 10.3133Z" fill="#64748b" />
</svg>
