<svg width="11" height="16" viewBox="0 0 11 16" fill="none" xmlns="http://www.w3.org/2000/svg">
<path d="M5.46352 4.50012C5.62144 4.50012 5.77289 4.5528 5.88456 4.64657C5.99623 4.74034 6.05896 4.86751 6.05896 5.00012V10.0631C6.62027 10.1848 7.10944 10.4742 7.4348 10.8771C7.76016 11.28 7.89936 11.7687 7.82632 12.2516C7.75327 12.7345 7.47299 13.1785 7.03801 13.5003C6.60304 13.8221 6.04323 13.9996 5.46352 13.9996C4.88381 13.9996 4.324 13.8221 3.88902 13.5003C3.45405 13.1785 3.17377 12.7345 3.10072 12.2516C3.02767 11.7687 3.16688 11.28 3.49223 10.8771C3.81759 10.4742 4.30677 10.1848 4.86807 10.0631V5.00012C4.86807 4.86751 4.93081 4.74034 5.04247 4.64657C5.15414 4.5528 5.3056 4.50012 5.46352 4.50012ZM5.46352 0.00012207C4.51599 0.00012207 3.60726 0.316193 2.93726 0.878802C2.26725 1.44141 1.89085 2.20447 1.89085 3.00012V9.35412C1.28448 9.93146 0.889391 10.6435 0.752983 11.4047C0.616576 12.1659 0.744646 12.944 1.12183 13.6456C1.49901 14.3472 2.10927 14.9426 2.8794 15.3602C3.64952 15.7778 4.54678 15.9999 5.46352 15.9999C6.38025 15.9999 7.27752 15.7778 8.04764 15.3602C8.81776 14.9426 9.42803 14.3472 9.80521 13.6456C10.1824 12.944 10.3105 12.1659 10.1741 11.4047C10.0376 10.6435 9.64256 9.93146 9.03619 9.35412V3.00012C9.03619 2.20447 8.65979 1.44141 7.98978 0.878802C7.31977 0.316193 6.41105 0.00012207 5.46352 0.00012207ZM5.46352 1.00012C6.09521 1.00012 6.70102 1.21084 7.14769 1.58591C7.59436 1.96098 7.8453 2.46969 7.8453 3.00012V9.75512L8.0156 9.90012C8.5079 10.3221 8.84089 10.8567 8.97281 11.437C9.10473 12.0172 9.02972 12.6172 8.75717 13.1618C8.48463 13.7064 8.02668 14.1713 7.44075 14.4982C6.85483 14.8251 6.167 14.9995 5.46352 14.9995C4.76004 14.9995 4.07221 14.8251 3.48628 14.4982C2.90036 14.1713 2.44241 13.7064 2.16986 13.1618C1.89732 12.6172 1.8223 12.0172 1.95423 11.437C2.08615 10.8567 2.41914 10.3221 2.91144 9.90012L3.08174 9.75512V3.00012C3.08174 2.46969 3.33267 1.96098 3.77934 1.58591C4.22602 1.21084 4.83183 1.00012 5.46352 1.00012Z" fill="#E39D9D"/>
</svg>
