<svg width="16" height="17" viewBox="0 0 16 17" fill="none" xmlns="http://www.w3.org/2000/svg">
<path fill-rule="evenodd" clip-rule="evenodd" d="M4.16659 3.76786C4.16659 3.33934 4.29366 2.92044 4.53173 2.56413C4.76981 2.20782 5.1082 1.93011 5.5041 1.76612C5.90001 1.60214 6.33566 1.55923 6.75595 1.64283C7.17624 1.72643 7.5623 1.93279 7.86532 2.2358C8.16833 2.53881 8.37469 2.92488 8.45829 3.34517C8.54189 3.76546 8.49898 4.2011 8.33499 4.59701C8.171 4.99292 7.89329 5.33131 7.53699 5.56938C7.18068 5.80746 6.76178 5.93453 6.33325 5.93453H1.99992C1.86731 5.93453 1.74013 5.88185 1.64637 5.78808C1.5526 5.69432 1.49992 5.56714 1.49992 5.43453C1.49992 5.30192 1.5526 5.17475 1.64637 5.08098C1.74013 4.98721 1.86731 4.93453 1.99992 4.93453H6.33325C6.564 4.93453 6.78956 4.86611 6.98142 4.73791C7.17327 4.60972 7.32281 4.42751 7.41111 4.21433C7.49941 4.00115 7.52252 3.76657 7.4775 3.54026C7.43249 3.31395 7.32137 3.10607 7.15821 2.94291C6.99505 2.77974 6.78717 2.66863 6.56086 2.62361C6.33455 2.5786 6.09997 2.6017 5.88679 2.69C5.67361 2.77831 5.4914 2.92784 5.3632 3.1197C5.23501 3.31156 5.16659 3.53712 5.16659 3.76786V4.00586C5.16659 4.13847 5.11391 4.26565 5.02014 4.35942C4.92637 4.45319 4.79919 4.50586 4.66659 4.50586C4.53398 4.50586 4.4068 4.45319 4.31303 4.35942C4.21926 4.26565 4.16659 4.13847 4.16659 4.00586V3.76786ZM9.49992 5.1012C9.49992 4.54082 9.66609 3.99302 9.97742 3.52708C10.2888 3.06114 10.7313 2.69799 11.249 2.48354C11.7667 2.26909 12.3364 2.21298 12.886 2.32231C13.4356 2.43163 13.9405 2.70148 14.3367 3.09773C14.733 3.49398 15.0028 3.99883 15.1121 4.54844C15.2215 5.09805 15.1654 5.66774 14.9509 6.18547C14.7365 6.70319 14.3733 7.1457 13.9074 7.45703C13.4414 7.76836 12.8936 7.93453 12.3333 7.93453H1.33325C1.20064 7.93453 1.07347 7.88185 0.979699 7.78808C0.88593 7.69432 0.833252 7.56714 0.833252 7.43453C0.833252 7.30192 0.88593 7.17475 0.979699 7.08098C1.07347 6.98721 1.20064 6.93453 1.33325 6.93453H12.3333C12.6959 6.93453 13.0503 6.82701 13.3518 6.62556C13.6533 6.42411 13.8883 6.13778 14.027 5.80278C14.1658 5.46779 14.2021 5.09916 14.1314 4.74353C14.0606 4.3879 13.886 4.06123 13.6296 3.80483C13.3732 3.54844 13.0465 3.37383 12.6909 3.30309C12.3353 3.23235 11.9667 3.26866 11.6317 3.40742C11.2967 3.54618 11.0103 3.78116 10.8089 4.08265C10.6074 4.38414 10.4999 4.7386 10.4999 5.1012V5.43453C10.4999 5.56714 10.4472 5.69432 10.3535 5.78808C10.2597 5.88185 10.1325 5.93453 9.99992 5.93453C9.86731 5.93453 9.74013 5.88185 9.64637 5.78808C9.5526 5.69432 9.49992 5.56714 9.49992 5.43453V5.1012ZM2.16659 9.43453C2.16659 9.30192 2.21926 9.17475 2.31303 9.08098C2.4068 8.98721 2.53398 8.93453 2.66659 8.93453H12.3333C12.8936 8.93453 13.4414 9.1007 13.9074 9.41203C14.3733 9.72336 14.7365 10.1659 14.9509 10.6836C15.1654 11.2013 15.2215 11.771 15.1121 12.3206C15.0028 12.8702 14.733 13.3751 14.3367 13.7713C13.9405 14.1676 13.4356 14.4374 12.886 14.5468C12.3364 14.6561 11.7667 14.6 11.249 14.3855C10.7313 14.1711 10.2888 13.8079 9.97742 13.342C9.66609 12.876 9.49992 12.3282 9.49992 11.7679V11.4345C9.49992 11.3019 9.5526 11.1747 9.64637 11.081C9.74013 10.9872 9.86731 10.9345 9.99992 10.9345C10.1325 10.9345 10.2597 10.9872 10.3535 11.081C10.4472 11.1747 10.4999 11.3019 10.4999 11.4345V11.7679C10.4999 12.1305 10.6074 12.4849 10.8089 12.7864C11.0103 13.0879 11.2967 13.3229 11.6317 13.4616C11.9667 13.6004 12.3353 13.6367 12.6909 13.566C13.0465 13.4952 13.3732 13.3206 13.6296 13.0642C13.886 12.8078 14.0606 12.4812 14.1314 12.1255C14.2021 11.7699 14.1658 11.4013 14.027 11.0663C13.8883 10.7313 13.6533 10.445 13.3518 10.2435C13.0503 10.0421 12.6959 9.93453 12.3333 9.93453H2.66659C2.53398 9.93453 2.4068 9.88185 2.31303 9.78808C2.21926 9.69432 2.16659 9.56714 2.16659 9.43453Z" fill="#64748b"/>
</svg>
